name C:\Users\u0101727\Documents\MyRepositories\upper-imu-dc\OpenSim\subject0\MA\ResultsMA\grid_4nodes_9dim\angles_26.mot
datacolumns 10
datarows 28
range 2610.73000000 2611.00000000
endheader 
time	clav_prot	clav_elev	scapula_abduction	scapula_elevation	scapula_upward_rot	scapula_winging	plane_elv	shoulder_elv	axial_rot	
       2610.73000000	        -50.00000000	        -10.00000000	        -21.66666667	         10.00000000	         90.00000000	          0.00000000	         90.00000000	        100.00000000	         90.00000000	
       2610.74000000	        -38.33333333	        -10.00000000	        -21.66666667	         10.00000000	         90.00000000	          0.00000000	         90.00000000	        100.00000000	         90.00000000	
       2610.75000000	        -26.66666667	        -10.00000000	        -21.66666667	         10.00000000	         90.00000000	          0.00000000	         90.00000000	        100.00000000	         90.00000000	
       2610.76000000	        -15.00000000	        -10.00000000	        -21.66666667	         10.00000000	         90.00000000	          0.00000000	         90.00000000	        100.00000000	         90.00000000	
       2610.77000000	        -50.00000000	          0.00000000	        -21.66666667	         10.00000000	         90.00000000	          0.00000000	         90.00000000	        100.00000000	         90.00000000	
       2610.78000000	        -38.33333333	          0.00000000	        -21.66666667	         10.00000000	         90.00000000	          0.00000000	         90.00000000	        100.00000000	         90.00000000	
       2610.79000000	        -26.66666667	          0.00000000	        -21.66666667	         10.00000000	         90.00000000	          0.00000000	         90.00000000	        100.00000000	         90.00000000	
       2610.80000000	        -15.00000000	          0.00000000	        -21.66666667	         10.00000000	         90.00000000	          0.00000000	         90.00000000	        100.00000000	         90.00000000	
       2610.81000000	        -50.00000000	         10.00000000	        -21.66666667	         10.00000000	         90.00000000	          0.00000000	         90.00000000	        100.00000000	         90.00000000	
       2610.82000000	        -38.33333333	         10.00000000	        -21.66666667	         10.00000000	         90.00000000	          0.00000000	         90.00000000	        100.00000000	         90.00000000	
       2610.83000000	        -26.66666667	         10.00000000	        -21.66666667	         10.00000000	         90.00000000	          0.00000000	         90.00000000	        100.00000000	         90.00000000	
       2610.84000000	        -15.00000000	         10.00000000	        -21.66666667	         10.00000000	         90.00000000	          0.00000000	         90.00000000	        100.00000000	         90.00000000	
       2610.85000000	        -50.00000000	         20.00000000	        -21.66666667	         10.00000000	         90.00000000	          0.00000000	         90.00000000	        100.00000000	         90.00000000	
       2610.86000000	        -38.33333333	         20.00000000	        -21.66666667	         10.00000000	         90.00000000	          0.00000000	         90.00000000	        100.00000000	         90.00000000	
       2610.87000000	        -26.66666667	         20.00000000	        -21.66666667	         10.00000000	         90.00000000	          0.00000000	         90.00000000	        100.00000000	         90.00000000	
       2610.88000000	        -15.00000000	         20.00000000	        -21.66666667	         10.00000000	         90.00000000	          0.00000000	         90.00000000	        100.00000000	         90.00000000	
       2610.89000000	        -50.00000000	        -10.00000000	         -3.33333333	         10.00000000	         90.00000000	          0.00000000	         90.00000000	        100.00000000	         90.00000000	
       2610.90000000	        -38.33333333	        -10.00000000	         -3.33333333	         10.00000000	         90.00000000	          0.00000000	         90.00000000	        100.00000000	         90.00000000	
       2610.91000000	        -26.66666667	        -10.00000000	         -3.33333333	         10.00000000	         90.00000000	          0.00000000	         90.00000000	        100.00000000	         90.00000000	
       2610.92000000	        -15.00000000	        -10.00000000	         -3.33333333	         10.00000000	         90.00000000	          0.00000000	         90.00000000	        100.00000000	         90.00000000	
       2610.93000000	        -50.00000000	          0.00000000	         -3.33333333	         10.00000000	         90.00000000	          0.00000000	         90.00000000	        100.00000000	         90.00000000	
       2610.94000000	        -38.33333333	          0.00000000	         -3.33333333	         10.00000000	         90.00000000	          0.00000000	         90.00000000	        100.00000000	         90.00000000	
       2610.95000000	        -26.66666667	          0.00000000	         -3.33333333	         10.00000000	         90.00000000	          0.00000000	         90.00000000	        100.00000000	         90.00000000	
       2610.96000000	        -15.00000000	          0.00000000	         -3.33333333	         10.00000000	         90.00000000	          0.00000000	         90.00000000	        100.00000000	         90.00000000	
       2610.97000000	        -50.00000000	         10.00000000	         -3.33333333	         10.00000000	         90.00000000	          0.00000000	         90.00000000	        100.00000000	         90.00000000	
       2610.98000000	        -38.33333333	         10.00000000	         -3.33333333	         10.00000000	         90.00000000	          0.00000000	         90.00000000	        100.00000000	         90.00000000	
       2610.99000000	        -26.66666667	         10.00000000	         -3.33333333	         10.00000000	         90.00000000	          0.00000000	         90.00000000	        100.00000000	         90.00000000	
       2611.00000000	        -15.00000000	         10.00000000	         -3.33333333	         10.00000000	         90.00000000	          0.00000000	         90.00000000	        100.00000000	         90.00000000	
